<?xml version="1.0" encoding="utf-8"?>
<!-- Generator: Adobe Illustrator 23.0.2, SVG Export Plug-In . SVG Version: 6.00 Build 0)  -->
<svg version="1.1" id="图层_1" xmlns="http://www.w3.org/2000/svg" xmlns:xlink="http://www.w3.org/1999/xlink" x="0px" y="0px"
	 viewBox="0 0 612 659" style="enable-background:new 0 0 612 659;" xml:space="preserve">
<style type="text/css">
	.st0{fill:#dfdfd7;}
	.st1{fill:#dfdfd7;}
	.st2{fill:#dfdfd7;}
	.st3{fill:#dfdfd7;}
	.st4{fill:#dfdfd7;}
</style>
<path class="st0" d="M494.94,260.34c-0.51,23.93-1.55,45.51-4.76,66.92c-0.32,2.13,0.01,2.67,2.32,2.62
	c9.32-0.17,17.92,2.56,24.9,8.7c8.24,7.26,12.06,17.06,13.76,27.75c2.49,15.62,1.08,31.1-1.76,46.51
	c-3.21,17.43-8.33,34.26-15.92,50.31c-3.97,8.39-8.99,16.14-15.54,22.64c-7.63,7.58-17.03,11.86-27.91,12.6
	c-1.93,0.13-3.83,0.53-5.76,0.72c-6.34,0.64-8.83,5.32-11.04,10.37c-3.4,7.78-7.36,15.3-11.37,22.78
	c-5.84,10.92-12.62,21.22-20.69,30.61c-2.82,3.29-5.96,6.38-9.33,9.1c-7.17,5.79-14.9,10.63-23.27,14.66
	c-7.9,3.81-16.27,5.91-24.42,8.8c-12.3,4.36-25.21,5.87-37.81,8.82c-4.9,1.15-9.75,2.44-14.73,3.21
	c-8.34,1.28-16.23-0.62-24.18-2.93c-5.35-1.55-10.98-2.13-16.46-3.25c-5.78-1.19-11.68-2.06-17.26-3.88
	c-8.82-2.89-18.02-4.8-26.38-8.84c-5.6-2.7-11.44-5.05-16.62-8.58c-11.88-8.11-21.85-18.11-29.9-30.08
	c-7.36-10.95-13.52-22.54-19.27-34.38c-1.46-3.01-2.99-5.99-4.28-9.07c-1.97-4.72-5.61-6.84-10.48-7.48
	c-6.24-0.83-12.65-1.11-18.5-3.67c-9.29-4.07-16.41-10.71-22.09-19.08c-4.06-5.98-7.41-12.28-10.29-18.9
	c-7.13-16.4-11.75-33.5-14.46-51.13c-1.76-11.42-2.53-22.88-1.35-34.44c1.28-12.53,4.87-24.02,14.19-33.07
	c1.76-1.71,3.81-3.11,6.03-4.13c6.27-2.88,12.69-5.32,19.77-4.7c1.87,0.16,2.01-0.51,1.7-2.04c-2.52-12.27-4.43-24.65-5.77-37.1
	c-2.5-23.29-2.9-46.56,0.03-69.86c2-15.9,5.77-31.35,11.05-46.44c2.53-7.24,0.07-12.61-5.63-16.94c-1.13-0.86-1.32-1.41-0.65-2.67
	c5.26-9.97,11.12-19.52,18.18-28.36c7.81-9.77,16.38-18.7,26.03-26.68c7.41-6.12,15.2-11.59,23.31-16.71
	c5.49-3.47,11.44-5.98,16.99-9.22c6.09-3.55,12.82-5.33,19.15-8.16c10.25-4.59,21.22-6.49,32-9.18c21.8-5.45,43.84-5.65,66.03-3.79
	c5.99,0.5,12.03,1,17.83,2.55c10.25,2.73,20.85,4.37,30.67,8.45c6.59,2.74,13.45,4.94,19.75,8.31c9.41,5.04,18.68,10.4,27.08,17
	c9.24,7.25,17.61,15.52,24.15,25.37c5.58,8.41,10,17.43,11.67,27.52c0.93,5.6,3.96,9.13,9.51,10.38c8.83,1.98,13.84,8.2,17.8,15.72
	c7.17,13.58,9.6,28.42,11.49,43.36C494.63,228.39,495.01,245.51,494.94,260.34z M147.14,354.64c0.05,1.01,0.1,2,0.15,3
	c0.55,11,1.6,21.97,1.39,33c-0.02,1.17,0.39,2.87-0.87,3.29c-1.3,0.43-2.36-0.93-3.23-1.92c-0.38-0.44-0.54-1.05-0.86-1.56
	c-4.94-7.91-6.57-16.99-9-25.77c-1.08-3.91-2.81-7.52-6.02-9.92c-4.61-3.45-12.43-2.81-16.89,0.89c-5.6,4.63-8.97,10.69-10.69,17.6
	c-5.75,23.03-2.5,45.19,6.63,66.79c2.97,7.03,6.49,13.78,10.57,20.18c2.98,4.67,6.21,9.2,10.3,13.13c5.67,5.45,12,6.6,19.3,4.59
	c2.15-0.59,4.39-0.99,6.61-1.15c5.22-0.37,11.97,3.89,13.09,8.3c2.12,8.38,4.64,16.59,7.81,24.65
	c6.73,17.13,16.54,32.19,29.64,45.03c6.86,6.72,14.82,12.16,23.18,16.84c7.05,3.95,14.77,6.62,22.52,8.79
	c15.59,4.36,31.56,4.75,47.62,3.32c3.13-0.28,6.23-1.04,9.43-0.68c20.47,2.3,40.75,2.42,60.41-5.08c6.21-2.37,12.36-4.68,18.19-8.09
	c9.35-5.48,17.62-12.09,25.08-19.88c4.29-4.48,7.92-9.42,11.44-14.51c10.26-14.82,16.74-31.25,20.95-48.63
	c1.4-5.79,8.73-11.19,14.49-10.02c2.89,0.59,5.79,1.15,8.69,1.69c4.02,0.74,8.18,0.82,11.52-1.58c4.04-2.91,7.73-6.23,10.75-10.45
	c7.62-10.66,13.57-22.08,17.95-34.4c6.82-19.18,8.56-38.65,3.67-58.55c-1.76-7.18-4.95-13.73-11.08-17.98
	c-8.23-5.71-18.67-4.3-22.33,8.22c-1.82,6.23-3.4,12.53-5.38,18.72c-1.05,3.3-2.81,6.29-4.58,9.23c-0.84,1.39-2.29,2.82-3.97,2.3
	c-1.39-0.44-0.89-2.31-0.92-3.59c-0.22-8.17,0.44-16.3,0.88-24.45c0.2-3.69,0.43-7.38,0.64-11.08c-2.92-0.02-4.45,2.05-6.6,2.84
	c-5.34,1.95-10.59,4.17-15.9,6.21c-1.5,0.58-2.07,1.32-1.41,2.95c4.21,10.48,4.92,21.39,3.33,32.43
	c-1.87,13.05-6.02,25.3-14.73,35.48c-6.83,7.97-15.57,13.69-25.43,16.81c-17.49,5.55-34.75,4.76-51.26-4.28
	c-5.91-3.23-10.73-7.62-15.06-12.56c-2.38-2.71-4.33-5.91-5.99-9.13c-5.24-10.22-7.99-21.22-9.93-32.49
	c-1.11-6.46-1.77-12.96-4.7-19.14c-2.9-6.09-15.5-8.2-20.4-1.26c-1.91,2.7-3.05,5.91-3.61,9.27c-1.15,6.92-2.25,13.86-3.66,20.73
	c-2.34,11.34-6.42,22.05-13.41,31.37c-6.35,8.46-15.06,14.27-24.91,17.47c-15.36,4.99-30.85,5.05-46.01-1.79
	c-6.14-2.77-11.87-5.93-16.88-10.51c-4.86-4.45-8.85-9.47-11.66-15.39c-8.77-18.45-11.45-37.39-4.26-57.04
	c0.61-1.67,0.01-2.37-1.47-2.94c-5.41-2.07-10.79-4.23-16.19-6.32C151.78,356.75,150.02,354.66,147.14,354.64z M212.97,191.8
	c-8.95-0.8-18.31,1.14-27.5,4.25c-6.79,2.3-11.46,6.88-13.76,13.59c-1.61,4.71-2.35,9.66-2.82,14.64
	c-1.06,11.08-0.6,22.21-1.06,33.32c-0.42,9.99-3.63,18.62-10.29,26.03c-2.99,3.33-5.49,7.06-7.73,10.89
	c-3.05,5.19-5.39,10.8-5.16,16.97c0.39,10.39,1.09,20.77,1.6,31.15c0.05,1.07,0.36,1.72,1.42,1.98c4.69,1.14,9.22,2.74,13.77,4.34
	c4.69,1.64,9.63,2.58,14.38,4.06c2.03,0.63,3.42,0.57,4.67-1.32c3.97-5.98,9.96-9.78,15.87-13.34c8.55-5.15,18.41-6.72,28.11-8.11
	c5.53-0.79,11.14-0.15,16.82,0.88c12.47,2.25,23.31,7.56,32.77,15.63c3.68,3.14,7.28,6.59,10.05,10.81
	c4.48,6.82,4.7,6.98,13.03,6.12c6.86-0.71,13.63-0.36,20.43,0.26c1.01,0.09,2.04,0.09,3.05,0.12c1.97,0.07,3.32-0.66,4.49-2.43
	c2.51-3.79,5.28-7.37,8.42-10.74c4.68-5.01,10.26-8.79,15.94-12.33c7.92-4.94,17.04-6.96,26.13-8.32
	c5.63-0.84,11.36-0.04,17.14,0.86c15.65,2.44,29.04,8.57,39.14,21.01c1.25,1.54,2.38,1.41,3.96,1.02
	c9.23-2.28,18.12-5.65,27.27-8.18c1.67-0.46,1.98-1.25,2.06-2.76c0.47-9.26,0.99-18.53,1.57-27.78c0.57-9.12-2.69-16.67-9.14-22.99
	c-2.74-2.69-5.44-5.42-8.08-8.2c-3.44-3.64-5.33-8.07-6.39-12.91c-1.8-8.23-1.72-16.6-1.92-24.95c-0.26-11.11-0.84-22.18-3.26-33.1
	c-1.63-7.33-5.92-12.24-12.78-15.02c-7.2-2.92-14.85-4.2-22.48-4.72c-8.77-0.6-17.56-0.13-26.4,0.83c-15.09,1.64-30.22,3-45.27,4.97
	c-19.22,2.52-38.36,3.01-57.56-0.18c-13.92-2.32-28.02-3.25-41.96-5.55C225.7,191.65,219.72,191.55,212.97,191.8z M286.65,380.58
	c0.65-7.71-2.66-17.31-9.89-25.39c-6.82-7.62-15.17-13.54-24.75-16.82c-16.55-5.65-33.14-5.61-49.48,1.81
	c-7.4,3.36-13.69,7.94-18.79,14.07c-4.76,5.73-8.06,12.33-9.93,19.63c-2.88,11.23-2.34,22.31,0.39,33.51
	c3.72,15.29,11.87,27.36,25.19,35.67c8.23,5.14,17.75,6.69,27.16,8.09c3.63,0.54,7.33-0.17,11.06-0.85
	c9.38-1.71,18.18-4.26,25.93-10.23c5.03-3.88,9.17-8.41,12.07-13.88C282.61,412.97,286.21,398.77,286.65,380.58z M325.47,382.04
	c0.01,13.45,2.78,24.88,6.99,35.98c4.1,10.81,10.8,19.74,20.93,25.46c9.88,5.58,20.78,7.71,32.11,7.82
	c2.21,0.02,4.02-1.08,6.14-1.33c12.07-1.42,22.51-6.51,31.22-14.92c2.81-2.72,5.41-5.85,7.37-9.21c7.51-12.89,11.02-26.88,9.7-41.79
	c-1.96-22.16-13.59-37.93-34.22-45.57c-16.26-6.02-33.17-6.19-49.41,1.75c-5.18,2.53-10.14,5.18-14.66,8.93
	C330.77,358.16,324.66,369.14,325.47,382.04z"/>
<path class="st1" d="M305.47,500.62c8.38-0.28,16.21-1.04,24.02,0.22c3.38,0.55,6.08,2.45,8.74,4.39c1.61,1.18,1.64,2.48,0.23,4.09
	c-4.68,5.34-11.25,6.41-17.58,8.04c-4.2,1.08-8.62,0.86-12.78,2.27c-2.93,0.99-5.7-0.76-8.58-1.04c-6.39-0.63-12.67-1.81-18.66-4.25
	c-2.72-1.11-5.14-2.56-7.16-4.83c-1.67-1.88-1.45-3.19,0.33-4.54c3.86-2.94,8.16-4.62,13.08-4.73
	C293.42,500.11,299.73,500.19,305.47,500.62z"/>
<path class="st2" d="M296.01,444.06c6.28,1.13,13.79,0.65,21.31,0.01c2.35-0.2,4.7,0.08,6.99,0.56c4.37,0.92,5.78,3.97,3.84,8.02
	c-0.78,1.62-2,2.83-3.49,3.76c-9.7,6.05-20.11,6.25-30.74,3.35c-2.44-0.67-4.69-2.21-6.87-3.59c-2.23-1.41-3.63-3.4-3.86-6.23
	c-0.21-2.58,0.81-4.07,3.15-4.87C289.07,444.13,291.91,444.03,296.01,444.06z"/>
<path class="st3" d="M131.93,441c-6.81-3.08-9.85-8.85-11.84-15.07c-2.76-8.6-3.1-17.38-0.15-26.12c0.72-2.13,1.36-5.39,3.12-5.45
	c1.89-0.06,2.42,3.18,3.15,5.27c3.63,10.36,5.34,21.07,6.25,31.95C132.72,434.65,132.71,437.68,131.93,441z"/>
<path class="st3" d="M488.93,393.69c3.31,4.21,4.39,9.05,4.87,13.98c0.92,9.34-0.69,18.25-5.61,26.36
	c-1.61,2.65-3.93,4.64-6.58,6.27c-1.22,0.75-1.67,0.59-1.91-0.92c-0.7-4.4-0.15-8.76,0.33-13.11c1.02-9.32,2.91-18.47,5.89-27.37
	C486.53,397.08,487.36,395.36,488.93,393.69z"/>
<path class="st1" d="M429.78,325.25c-8.8-1.13-17.37-1.62-25.78-2.89c-8.55-1.28-17.08-1.25-25.49-0.49
	c-12.95,1.18-25.94,1.85-38.89,2.94c-2.88,0.24-4.04-0.73-3.63-3.55c0.27-1.81,0.52-3.62,0.94-5.39c0.47-1.98,1.62-3.14,3.8-3.7
	c9.65-2.49,19.47-4.23,29.13-6.61c7.21-1.77,14.47-2.63,21.8-3.29c5.52-0.5,11-0.35,16.24,1.72
	C416.57,307.44,425.45,316.01,429.78,325.25z"/>
<path class="st1" d="M181.93,325.26c4.64-8.36,10.5-14.44,18.33-19.15c8.49-5.11,17.32-4.35,26.2-3.24
	c15.28,1.9,30.19,5.8,45.14,9.41c2.76,0.67,3.31,2.66,3.77,4.83c1.65,7.64,1.46,7.94-6.08,7.51c-10.67-0.6-21.4-0.9-31.99-2.22
	c-7.93-0.99-15.83-1.14-23.69-0.68c-9.6,0.56-19.14,2.09-28.71,3.2C184.11,325.01,183.31,325.1,181.93,325.26z"/>
<path class="st4" d="M223.94,368.92c0.32-7.09,1.83-14.92,8.45-21.07c3.83-3.56,12.99-3.66,16.69,0.08
	c9.07,9.17,8.64,20.19,6.55,31.62c-0.8,4.39-2.94,8.19-5.46,11.77c-3.78,5.36-15.22,5.2-19.34-0.18
	C225.66,384.42,224.09,378.99,223.94,368.92z"/>
<path class="st4" d="M388.03,369.6c0.09,8.54-1.79,15.73-7,21.61c-4.52,5.1-15.34,6.18-19.88-1.04c-7-11.15-7.91-22.87-3.51-34.75
	c2.98-8.05,8.59-11.85,17.09-10c5.61,1.22,8.54,5.65,10.62,10.39C387.34,360.36,388.33,365.31,388.03,369.6z"/>
</svg>
