<?xml version="1.0" encoding="UTF-8"?>
<svg id="a" data-name="图层 1" xmlns="http://www.w3.org/2000/svg" viewBox="0 0 106.92 15.17">
  <defs>
    <style>
      .b {
        fill: #c30d23;
      }

      .c {
        fill: #231815;
      }
    </style>
  </defs>
  <path class="b" d="M.82,11.67c.11-1.57,.2-3.18,.27-4.82,.07-1.65,.1-2.91,.1-3.78v-.73s1.14,.01,1.14,.01c.06,0,.41,0,1.05-.01-.19,2.4-.3,5.51-.35,9.33h-1.01c-.17-.01-.57,0-1.19,0Z"/>
  <path class="b" d="M4.81,11.67c.06-.77,.13-1.93,.2-3.47s.11-2.7,.11-3.48c.39,0,.7,.01,.94,.01,.28,0,.58,0,.9-.01l-.05,1.1c.15-.21,.28-.39,.4-.52s.28-.26,.47-.37,.42-.2,.67-.27,.52-.1,.8-.1c.21,0,.4,.02,.59,.06s.37,.09,.52,.16,.29,.15,.4,.24c.11,.09,.21,.19,.28,.3,.08,.11,.16,.28,.25,.5,.1-.16,.19-.29,.28-.4,.08-.11,.2-.22,.34-.33s.3-.21,.47-.29,.37-.14,.58-.18,.44-.06,.67-.06c.4,0,.77,.06,1.12,.19,.35,.13,.63,.33,.83,.62s.3,.63,.3,1.04c0,.22-.02,.54-.05,.96s-.07,1.12-.11,2.07c-.05,.96-.07,1.7-.07,2.23-.33,0-.63-.01-.88-.01-.3,0-.65,0-1.06,.01,.04-.59,.08-1.2,.12-1.85l.08-1.57c.02-.4,.03-.73,.03-1,0-.33-.05-.57-.15-.74-.1-.17-.23-.29-.39-.36-.16-.07-.33-.11-.53-.11s-.39,.04-.56,.12c-.17,.08-.32,.2-.47,.38-.14,.17-.25,.38-.33,.61-.08,.23-.13,.56-.17,.97-.04,.42-.07,.96-.09,1.64l-.05,1.9c-.38,0-.69-.01-.94-.01s-.59,0-1.01,.01c.03-.35,.08-1.07,.14-2.15s.09-1.82,.09-2.19c0-.2-.02-.37-.05-.51s-.1-.27-.19-.4c-.1-.13-.21-.22-.34-.28s-.28-.09-.46-.09c-.32,0-.6,.1-.84,.31-.24,.21-.42,.49-.53,.84-.11,.35-.19,1.03-.24,2.05s-.07,1.82-.07,2.42c-.42,0-.73-.01-.95-.01-.24,0-.58,0-1,.01Z"/>
  <path class="b" d="M17.83,6.24c.06-.33,.1-.56,.12-.69s.04-.33,.09-.6c.62-.15,1.17-.25,1.64-.31s.93-.09,1.37-.09c.5,0,.96,.06,1.38,.17s.75,.3,.98,.56,.36,.62,.36,1.1c0,.26-.04,.92-.11,1.99-.07,1.06-.12,2.16-.13,3.3-.35,0-.67-.01-.96-.01s-.6,0-.98,.01c.06-.55,.11-1.19,.15-1.91l.09-1.7c-.17,.11-.31,.19-.4,.24s-.19,.09-.31,.13c-.11,.04-.31,.1-.6,.18-.29,.08-.52,.15-.69,.21s-.33,.13-.47,.2-.26,.16-.35,.25-.17,.19-.21,.29-.06,.21-.06,.33c0,.19,.06,.36,.17,.5s.25,.24,.42,.29,.37,.08,.59,.08c.15,0,.3-.01,.46-.03s.38-.08,.65-.17c-.1,.26-.21,.65-.33,1.16-.32,.05-.58,.09-.77,.1s-.37,.02-.53,.02c-.57,0-1.05-.08-1.42-.23s-.64-.4-.82-.74-.26-.68-.26-1.02c0-.2,.03-.39,.1-.58s.17-.37,.3-.53c.13-.16,.3-.31,.51-.46s.51-.29,.91-.43c.4-.14,.92-.28,1.57-.42,.17-.04,.35-.08,.54-.13s.34-.1,.45-.15c.11-.05,.21-.12,.29-.19s.14-.16,.18-.25,.06-.18,.06-.27c0-.18-.06-.33-.17-.45s-.27-.21-.45-.26-.39-.07-.61-.07c-.83,0-1.75,.2-2.75,.59Z"/>
  <path class="b" d="M25.74,13.11c1.03,.34,1.91,.51,2.67,.51,.29,0,.56-.04,.81-.11,.26-.07,.47-.17,.64-.31s.31-.32,.4-.55c.1-.23,.16-.5,.19-.8s.06-.76,.08-1.37c-.18,.24-.34,.43-.48,.56s-.31,.26-.51,.36-.43,.19-.69,.26-.54,.1-.83,.1c-.4,0-.78-.06-1.14-.19s-.68-.32-.96-.59-.49-.61-.64-1.02-.22-.83-.22-1.27c0-.63,.12-1.23,.36-1.8s.59-1.03,1.05-1.39,.96-.62,1.48-.75,1.11-.21,1.75-.21c.36,0,.76,.02,1.21,.06s1.05,.13,1.79,.26l-.16,2.17-.14,2.71-.05,2.45c-.01,.28-.05,.54-.1,.8-.05,.26-.14,.49-.26,.7-.12,.21-.27,.39-.45,.55-.18,.16-.39,.29-.62,.39-.23,.1-.51,.18-.85,.24-.34,.06-.7,.1-1.09,.1-.42,0-.89-.03-1.42-.08-.53-.05-1.11-.16-1.73-.31l-.09-1.48Zm4.99-7.03c-.4-.08-.76-.12-1.1-.12-.59,0-1.08,.11-1.47,.33-.39,.22-.69,.53-.9,.95s-.31,.86-.31,1.32c0,.34,.06,.66,.19,.96s.33,.52,.6,.67c.27,.15,.57,.23,.9,.23,.23,0,.45-.04,.65-.11,.2-.07,.39-.19,.55-.34,.16-.15,.31-.34,.43-.56,.12-.22,.21-.48,.27-.76,.05-.28,.09-.63,.12-1.05s.05-.92,.07-1.5Z"/>
  <path class="b" d="M34.07,11.67c.07-.68,.12-1.26,.15-1.72,.05-.73,.09-1.57,.12-2.52,.03-.95,.06-1.86,.07-2.71,.44,0,.78,.01,1,.01,.2,0,.53,0,.99-.01-.06,.79-.11,1.55-.15,2.27-.04,.72-.06,1.54-.08,2.47s-.03,1.67-.03,2.21c-.42,0-.75-.01-1-.01-.24,0-.6,0-1.07,.01Zm.37-8.14c.02-.47,.03-.83,.03-1.08v-.22c.41,0,.75,.01,1.01,.01,.36,0,.69,0,.99-.01-.01,.11-.02,.24-.03,.39l-.03,.91c-.35,0-.67-.01-.96-.01s-.63,0-1.01,.01Z"/>
  <path class="b" d="M37.75,11.67c.1-1.03,.19-2.2,.26-3.49s.11-2.44,.12-3.47c.42,0,.76,.01,1.01,.01,.3,0,.61,0,.94-.01l-.08,1.16c.14-.2,.27-.36,.37-.48,.11-.12,.24-.23,.41-.35,.17-.11,.34-.21,.53-.27,.19-.07,.4-.12,.64-.16,.23-.04,.48-.06,.73-.06,.41,0,.79,.05,1.17,.15,.37,.1,.67,.27,.9,.49s.38,.47,.45,.73,.11,.54,.11,.84c0,.12,0,.32-.02,.59l-.14,2.99c-.02,.41-.03,.86-.03,1.33-.36,0-.67-.01-.92-.01-.35,0-.7,0-1.05,.01,.04-.4,.08-1.09,.14-2.07,.06-.99,.08-1.64,.08-1.96,0-.36-.06-.65-.17-.87s-.29-.39-.53-.5c-.24-.11-.5-.17-.78-.17s-.53,.05-.77,.16-.44,.26-.61,.46c-.18,.21-.32,.46-.42,.76-.1,.32-.18,.85-.23,1.58-.05,.65-.08,1.52-.11,2.62-.35,0-.67-.01-.95-.01s-.64,0-1.05,.01Z"/>
  <path class="b" d="M46.76,11.67c.07-.68,.12-1.26,.15-1.72,.05-.73,.09-1.57,.12-2.52,.03-.95,.06-1.86,.07-2.71,.44,0,.78,.01,1,.01,.2,0,.53,0,.99-.01-.06,.79-.11,1.55-.15,2.27-.04,.72-.06,1.54-.08,2.47s-.03,1.67-.03,2.21c-.42,0-.75-.01-1-.01-.24,0-.6,0-1.07,.01Zm.37-8.14c.02-.47,.03-.83,.03-1.08v-.22c.41,0,.75,.01,1.01,.01,.36,0,.69,0,.99-.01-.01,.11-.02,.24-.03,.39l-.03,.91c-.35,0-.67-.01-.96-.01s-.63,0-1.01,.01Z"/>
  <path class="b" d="M50.31,11.54l-.15-1.5c.45,.18,.82,.31,1.13,.38s.59,.11,.85,.11,.48-.03,.66-.09,.31-.15,.4-.27,.13-.25,.13-.38c0-.06,0-.11-.02-.16s-.03-.1-.06-.16-.06-.11-.1-.15-.09-.1-.16-.16-.17-.14-.29-.24l-.37-.29c-.36-.28-.63-.5-.81-.66s-.34-.32-.47-.49-.22-.34-.29-.53-.1-.37-.1-.56c0-.33,.1-.65,.3-.95s.5-.52,.89-.66,.84-.21,1.37-.21c.6,0,1.29,.07,2.06,.21l.09,1.43c-.53-.21-1.04-.32-1.52-.32-.26,0-.5,.03-.69,.08s-.34,.13-.43,.24-.13,.23-.13,.36c0,.08,.01,.15,.04,.23s.08,.15,.14,.24,.15,.16,.24,.23,.27,.22,.56,.43,.53,.41,.74,.58,.39,.35,.52,.52,.24,.36,.31,.56,.11,.4,.11,.61c0,.34-.1,.66-.31,.95s-.53,.52-.95,.68-.9,.25-1.42,.25c-.27,0-.61-.02-1-.06s-.81-.12-1.26-.23Z"/>
  <path class="b" d="M60.9,10.24c-.05,.25-.14,.72-.26,1.39-.38,.09-.68,.14-.9,.16s-.42,.03-.62,.03c-.34,0-.64-.03-.91-.1s-.49-.18-.66-.34-.29-.35-.35-.57-.09-.44-.09-.67c0-.06,0-.14,0-.24s.02-.42,.05-.97l.16-2.84h-.98c.02-.27,.04-.71,.06-1.32h1.03c.03-.26,.05-.71,.08-1.35l.81-.16c.17-.03,.5-.11,.98-.23-.03,.62-.05,1.19-.06,1.73h1.74c-.03,.62-.05,1.06-.05,1.32h-1.74c-.1,1.85-.14,2.93-.14,3.22s.03,.5,.09,.66,.16,.27,.3,.33,.28,.1,.44,.1c.11,0,.23,0,.36-.03,.12-.02,.35-.07,.66-.15Z"/>
  <path class="c" d="M65.22,11.47c-.04-.69-.08-1.26-.14-1.7,.89,.41,1.7,.61,2.43,.61,.29,0,.56-.04,.82-.13s.44-.21,.56-.38,.18-.34,.18-.54c0-.15-.03-.29-.09-.42-.09-.17-.23-.34-.44-.53-.26-.25-.73-.66-1.39-1.24-.32-.28-.54-.48-.66-.59-.27-.26-.48-.49-.63-.7s-.25-.41-.31-.62-.1-.42-.1-.66c0-.43,.12-.83,.36-1.21s.6-.67,1.07-.88,1.08-.32,1.8-.32c.65,0,1.39,.08,2.2,.24,.02,.47,.07,1.02,.14,1.63-.71-.27-1.36-.41-1.96-.41-.45,0-.81,.1-1.1,.3s-.43,.44-.43,.71c0,.07,0,.15,.03,.23s.05,.16,.09,.23c.04,.08,.11,.17,.21,.29s.25,.26,.45,.42,.36,.29,.5,.39l.84,.77c.21,.18,.4,.35,.57,.52,.17,.17,.31,.33,.43,.49s.21,.3,.28,.44c.07,.14,.12,.29,.15,.43s.05,.3,.05,.47c0,.38-.09,.74-.27,1.08s-.43,.62-.77,.84-.7,.37-1.09,.45-.82,.13-1.26,.13c-.29,0-.63-.02-1.02-.08s-.9-.15-1.53-.29Z"/>
  <path class="c" d="M76.78,10.24c-.05,.25-.14,.72-.26,1.39-.38,.09-.68,.14-.9,.16s-.42,.03-.62,.03c-.34,0-.64-.03-.91-.1s-.49-.18-.66-.34-.29-.35-.35-.57-.09-.44-.09-.67c0-.06,0-.14,0-.24s.02-.42,.05-.97l.16-2.84h-.98c.02-.27,.04-.71,.06-1.32h1.03c.03-.26,.05-.71,.08-1.35l.81-.16c.17-.03,.5-.11,.98-.23-.03,.62-.05,1.19-.06,1.73h1.74c-.03,.62-.05,1.06-.05,1.32h-1.74c-.1,1.85-.14,2.93-.14,3.22s.03,.5,.09,.66,.16,.27,.3,.33,.28,.1,.44,.1c.11,0,.23,0,.36-.03,.12-.02,.35-.07,.66-.15Z"/>
  <path class="c" d="M84.77,11.67c-.4,0-.71-.01-.92-.01-.27,0-.57,0-.92,.01v-1.13c-.12,.19-.23,.35-.32,.46s-.22,.23-.38,.34c-.16,.11-.32,.2-.51,.27s-.39,.12-.63,.16c-.23,.04-.48,.06-.75,.06-.51,0-.95-.07-1.33-.22-.38-.15-.68-.37-.9-.67-.22-.3-.33-.73-.33-1.29v-.14l.11-1.76,.1-2.32c0-.19,0-.42,0-.7,.43,0,.77,.01,1.02,.01,.26,0,.57,0,.94-.01l-.23,3.12c-.01,.24-.02,.45-.03,.61s-.01,.29-.01,.36c0,.33,.05,.6,.15,.82,.1,.22,.27,.38,.51,.5,.24,.11,.5,.17,.78,.17s.51-.05,.75-.15c.21-.09,.4-.22,.55-.38,.15-.16,.28-.39,.39-.66,.08-.2,.14-.48,.18-.83,.03-.25,.06-.68,.09-1.29,.04-.74,.06-1.49,.08-2.25,.45,0,.8,.01,1.03,.01,.27,0,.57,0,.91-.01-.05,.65-.11,1.47-.17,2.44s-.1,1.78-.12,2.42c-.02,.64-.04,1.33-.05,2.09Z"/>
  <path class="c" d="M93.54,11.67c-.38,0-.67-.01-.88-.01-.23,0-.54,0-.94,.01l.06-1.19c-.2,.26-.37,.46-.52,.6s-.32,.27-.53,.39-.44,.21-.69,.27-.5,.09-.77,.09c-.44,0-.85-.08-1.23-.24s-.71-.38-.98-.67c-.27-.29-.47-.63-.59-1.03s-.19-.81-.19-1.25c0-.6,.11-1.18,.34-1.75,.23-.57,.54-1.03,.94-1.38,.4-.35,.84-.6,1.35-.75s1.04-.22,1.61-.22c.41,0,.88,.04,1.41,.12,.03-.59,.05-1.21,.05-1.87v-.46c.43,0,.76,.01,.99,.01,.3,0,.63,0,1-.01-.1,1.16-.19,2.73-.28,4.73-.09,1.99-.13,3.53-.13,4.6Zm-1.69-5.7c-.34-.09-.67-.14-.98-.14-.36,0-.7,.05-1.03,.15s-.62,.27-.87,.51-.45,.55-.58,.93-.21,.74-.21,1.09,.06,.67,.19,.96c.12,.29,.32,.52,.58,.69,.26,.17,.56,.25,.9,.25,.25,0,.48-.04,.68-.13s.39-.23,.56-.41,.31-.42,.43-.71,.2-.68,.25-1.16c.03-.36,.06-1.03,.09-2.04Z"/>
  <path class="c" d="M95.22,11.67c.07-.68,.12-1.26,.15-1.72,.05-.73,.09-1.57,.12-2.52,.03-.95,.06-1.86,.07-2.71,.44,0,.78,.01,1,.01,.2,0,.53,0,.99-.01-.06,.79-.11,1.55-.15,2.27-.04,.72-.06,1.54-.08,2.47s-.03,1.67-.03,2.21c-.42,0-.75-.01-1-.01-.24,0-.6,0-1.07,.01Zm.37-8.14c.02-.47,.03-.83,.03-1.08v-.22c.41,0,.75,.01,1.01,.01,.36,0,.69,0,.99-.01-.01,.11-.02,.24-.03,.39l-.03,.91c-.35,0-.67-.01-.96-.01s-.63,0-1.01,.01Z"/>
  <path class="c" d="M102.7,4.55c.52,0,1.03,.08,1.51,.24s.89,.39,1.22,.7,.59,.68,.76,1.13,.25,.91,.25,1.4c0,.52-.09,1.02-.27,1.5s-.44,.9-.77,1.25-.76,.62-1.26,.79-1.04,.26-1.61,.26c-.53,0-1.03-.08-1.51-.24s-.88-.39-1.22-.71-.59-.7-.77-1.15-.26-.92-.26-1.42,.08-.98,.24-1.44,.41-.86,.75-1.22,.77-.63,1.3-.83,1.08-.29,1.64-.29Zm0,1.41c-.4,0-.75,.1-1.06,.29s-.54,.48-.69,.86c-.15,.38-.23,.8-.23,1.25,0,.4,.06,.75,.19,1.06,.12,.31,.33,.56,.61,.75s.62,.29,1.01,.29,.75-.1,1.05-.3c.3-.2,.53-.49,.68-.88,.15-.39,.23-.81,.23-1.27,0-.38-.06-.72-.18-1.03s-.32-.56-.6-.75c-.28-.19-.62-.28-1.02-.28Z"/>
</svg>